<?xml version="1.0" encoding="utf-8"?>
<!-- Generator: Adobe Illustrator 19.1.1, SVG Export Plug-In . SVG Version: 6.00 Build 0)  -->
<svg version="1.1" id="Layer_1" xmlns="http://www.w3.org/2000/svg" xmlns:xlink="http://www.w3.org/1999/xlink" x="0px" y="0px"
	 width="320px" height="45px" viewBox="0 0 320 45" style="enable-background:new 0 0 320 45;" xml:space="preserve">
<style type="text/css">
	.st0{fill:#12A9EB;}
	.st1{fill:#2F3B4C;}
</style>
<g id="logo">
	<path style="fill: #12A9EB;" d="M43,22c-3.4,0-6.1-2.8-6.1-6.1c0-3.4,2.8-6.1,6.1-6.1c3.4,0,6.1,2.8,6.1,6.1S46.4,22,43,22z M51.9,23
		c-2.7,0-4.9,2.2-4.9,4.9s2.2,4.9,4.9,4.9s4.9-2.2,4.9-4.9S54.6,23,51.9,23z M61.2,13.9c-1.9,0-3.3,1.5-3.3,3.3
		c0,1.9,1.5,3.3,3.3,3.3c1.9,0,3.3-1.5,3.3-3.3C64.5,15.3,63,13.9,61.2,13.9z M78.5,36.9H80v-3.2h-1.5V36.9z M125.5,29.3h-13.8V15.5
		c0-1.2-0.5-1.7-1.7-1.7c-1.2,0-1.7,0.5-1.7,1.7v15.6c0,1.2,0.5,1.7,1.7,1.7h15.5c1.2,0,1.7-0.5,1.7-1.7
		C127.3,29.9,126.7,29.3,125.5,29.3z M142.7,13.7l9.5,17.3c0,1.2-0.9,1.7-2.6,1.7l-1.9-3.4h-13.4l-1.9,3.4c-1.7,0-2.6-0.5-2.6-1.7
		l9.5-17.3H142.7z M145.7,25.8l-4.8-8.6l-4.8,8.6H145.7z M178.9,26.6v0.9c0,3.4-2,5.1-6,5.1h-16.4c-1.2,0-1.7-0.5-1.7-1.7V15.5
		c0-1.2,0.5-1.7,1.7-1.7h14.7c4.1,0,6,1.7,6,5.1v0.9c0,1.7-0.5,2.9-1.7,3.4C177.8,23.8,178.9,24.9,178.9,26.6z M158.2,21.5h11.3h0.1
		c2.8,0,4.2-0.5,4.2-1.7v-0.9l0,0c0-1.2-1.2-1.7-3.4-1.7h-12.1L158.2,21.5L158.2,21.5z M175.5,26.6c0-1.2-1.4-1.7-4.3-1.7h-13v4.3
		H172c2.3,0,3.4-0.5,3.4-1.7L175.5,26.6C175.4,26.6,175.5,26.6,175.5,26.6z"/>
	<path style="fill: #2F3B4C;" d="M34.4,37h-1.5v-5.4h1.5V37z M43.7,23.2h-1.5V37h1.5V23.2z M52.7,9.6h-1.5v12.2h1.5V9.6z M52.7,33.9h-1.5v3h1.5
		V33.9z M61.9,22h-1.5v14.9h1.5V22z M71.4,28.4h-1.5v8.6h1.5V28.4z M92.8,25.3c0.8-1.4,0.8-3.1,0-4.4L86.3,9.6l-1.4,0.8l6.5,11.3
		c0.5,0.9,0.5,2,0,2.9L84.9,36l1.4,0.8L92.8,25.3z M27.1,36l-6.6-11.4c-0.5-0.9-0.5-2,0-2.9L27,10.4l-1.4-0.8l-6.5,11.3
		c-0.8,1.4-0.8,3.1,0,4.4l6.6,11.4L27.1,36z M183.3,13.7c-1,0-1.7,0.8-1.7,1.7V31c0,1,0.8,1.7,1.7,1.7c1,0,1.7-0.8,1.7-1.7V15.5
		C185,14.5,184.2,13.7,183.3,13.7z M229.8,13.7L229.8,13.7L229.8,13.7l-8.6,15.6l-6.7-12.1l0,0l-1.9-3.4c-1.7,0-2.6,0.5-2.6,1.7
		l9.5,17.3h3.4l9.5-17.4C232.4,14.3,231.5,13.7,229.8,13.7z M205.8,13.8h-0.4c-0.8,0-1.5,0.7-1.5,1.5v12.4l-12.8-14h-1.4h-0.4
		c-0.8,0-1.5,0.7-1.5,1.5v16c0,0.8,0.7,1.5,1.5,1.5h0.4c0.8,0,1.5-0.7,1.5-1.5V18.9l12.7,13.9h1.4l0,0h0.4c0.8,0,1.5-0.7,1.5-1.5
		V15.3C207.3,14.4,206.6,13.8,205.8,13.8z M253.2,13.7h-16h-0.5c-0.6,0-1.2,0.4-1.4,0.9c-0.1,0.2-0.1,0.4-0.1,0.6v0.4c0,0,0,0,0,0.1
		V23c0,0,0,0,0,0.1v0.4c0,0,0,0,0,0.1v7.4c0,0,0,0,0,0.1v0.4c0,0.5,0.2,0.8,0.5,1.1c0.3,0.3,0.6,0.5,1.1,0.5h0.5h16.1
		c0.8,0,1.5-0.7,1.5-1.5V31c0-0.8-0.7-1.5-1.5-1.5h-14.7V25h14.7c0.8,0,1.5-0.7,1.5-1.5v-0.4c0-0.8-0.7-1.5-1.5-1.5h-14.7v-4.5h14.7
		c0.8,0,1.5-0.7,1.5-1.5v-0.4C254.7,14.4,254.1,13.7,253.2,13.7z M275.3,13.7h-0.4c-0.8,0-1.5,0.7-1.5,1.5v12.4l-12.8-13.9h-1.4
		h-0.4c-0.8,0-1.5,0.7-1.5,1.5v16c0,0.8,0.7,1.5,1.5,1.5h0.4c0.8,0,1.5-0.7,1.5-1.5V18.9l12.8,13.9h1.4l0,0h0.4
		c0.8,0,1.5-0.7,1.5-1.5v-16C276.8,14.4,276.2,13.7,275.3,13.7z M299.6,13.8H281c-0.8,0-1.5,0.7-1.5,1.5v0.4c0,0.8,0.7,1.5,1.5,1.5
		h7.6v14c0,0.8,0.7,1.5,1.5,1.5h0.4c0.8,0,1.5-0.7,1.5-1.5v-14h7.6c0.8,0,1.5-0.7,1.5-1.5v-0.4C301.1,14.5,300.4,13.8,299.6,13.8z"
		/>
</g>
</svg>
